# Alias OBJ Model File
# Exported from SketchUp, (c) 2000-2012 Trimble Navigation Limited
# File units = inches

mtllib 10dof-Base_0.2.mtl

g Mesh1 G_10_dof_base1 Model

usemtl FrontColor
v 324.548 0 -96.312
vt -0.134344 0
vn -0.965926 0 0.258819
v 324.568 0 -96.2637
vt -0.082134 0
vn -0.866025 0 0.5
v 324.568 0.15748 -96.2637
vt -0.082134 0.15748
v 324.548 0.15748 -96.312
vt -0.134344 0.15748
f 1/1/1 2/2/2 3/3/2 4/4/1 

v 324.541 0 -97.0637
vt 0 0.9
vn 0 1 -0
v 324.541 0 -96.3637
vt 0 0.2
vt 0.00681483 0.148236
vt 0.0267949 0.1
v 324.6 0 -96.2223
vt 0.0585786 0.0585786
v 324.641 0 -96.1905
vt 0.1 0.0267949
v 324.689 0 -96.1705
vt 0.148236 0.00681483
v 324.741 0 -96.1637
vt 0.2 0
v 326.041 0 -96.1637
vt 1.5 0
v 326.093 0 -96.1705
vt 1.55176 0.00681483
v 326.141 0 -96.1905
vt 1.6 0.0267949
v 326.182 0 -96.2223
vt 1.64142 0.0585786
v 326.214 0 -96.2637
vt 1.67321 0.1
v 326.234 0 -96.312
vt 1.69319 0.148236
v 326.241 0 -96.3637
vt 1.7 0.2
v 326.241 0 -97.0637
vt 1.7 0.9
v 326.234 0 -97.1155
vt 1.69319 0.951764
v 326.214 0 -97.1637
vt 1.67321 1
v 326.182 0 -97.2051
vt 1.64142 1.04142
v 326.141 0 -97.2369
vt 1.6 1.07321
v 326.093 0 -97.2569
vt 1.55176 1.09319
v 326.041 0 -97.2637
vt 1.5 1.1
v 324.741 0 -97.2637
vt 0.2 1.1
v 324.689 0 -97.2569
vt 0.148236 1.09319
v 324.641 0 -97.2369
vt 0.1 1.07321
v 324.6 0 -97.2051
vt 0.0585786 1.04142
v 324.568 0 -97.1637
vt 0.0267949 1
v 324.548 0 -97.1155
vt 0.00681483 0.951764
f 5/5/3 6/6/3 1/7/3 2/8/3 7/9/3 8/10/3 9/11/3 10/12/3 11/13/3 12/14/3 13/15/3 14/16/3 15/17/3 16/18/3 17/19/3 18/20/3 19/21/3 20/22/3 21/23/3 22/24/3 23/25/3 24/26/3 25/27/3 26/28/3 27/29/3 28/30/3 29/31/3 30/32/3 

vt -0.9 0
vn -1 0 -0
vt -0.2 0
v 324.541 0.15748 -96.3637
vt -0.2 0.15748
v 324.541 0.15748 -97.0637
vt -0.9 0.15748
f 5/33/4 6/34/4 31/35/4 32/36/4 

vt -0.198289 0
vn -0.991445 0 0.130526
vt -0.146078 0
vt -0.146078 0.15748
vt -0.198289 0.15748
f 6/37/5 1/38/1 4/39/1 31/40/5 

v 324.6 0.15748 -96.2223
v 324.641 0.15748 -96.1905
v 324.689 0.15748 -96.1705
v 324.741 0.15748 -96.1637
v 326.041 0.15748 -96.1637
v 326.093 0.15748 -96.1705
v 326.141 0.15748 -96.1905
v 326.182 0.15748 -96.2223
v 326.214 0.15748 -96.2637
v 326.234 0.15748 -96.312
v 326.241 0.15748 -96.3637
v 326.241 0.15748 -97.0637
v 326.234 0.15748 -97.1155
v 326.214 0.15748 -97.1637
v 326.182 0.15748 -97.2051
v 326.141 0.15748 -97.2369
v 326.093 0.15748 -97.2569
v 326.041 0.15748 -97.2637
v 324.741 0.15748 -97.2637
v 324.689 0.15748 -97.2569
v 324.641 0.15748 -97.2369
v 324.6 0.15748 -97.2051
v 324.568 0.15748 -97.1637
v 324.548 0.15748 -97.1155
f 32/5/3 31/6/3 4/7/3 3/8/3 33/9/3 34/10/3 35/11/3 36/12/3 37/13/3 38/14/3 39/15/3 40/16/3 41/17/3 42/18/3 43/19/3 44/20/3 45/21/3 46/22/3 47/23/3 48/24/3 49/25/3 50/26/3 51/27/3 52/28/3 53/29/3 54/30/3 55/31/3 56/32/3 

vt -0.0630236 0
vt -0.0108131 0
vn -0.707107 0 0.707107
vt -0.0108131 0.15748
vt -0.0630236 0.15748
f 2/41/2 7/42/6 33/43/6 3/44/2 

vt 0.0108131 0
vt 0.0630236 0
vn -0.5 0 0.866025
vt 0.0630236 0.15748
vt 0.0108131 0.15748
f 7/45/6 8/46/7 34/47/7 33/48/6 

vt 0.082134 0
vt 0.134344 0
vn -0.258819 0 0.965926
vt 0.134344 0.15748
vt 0.082134 0.15748
f 8/49/7 9/50/8 35/51/8 34/52/7 

vt 0.146078 0
vt 0.198289 0
vn -0.130526 0 0.991445
vt 0.198289 0.15748
vt 0.146078 0.15748
f 9/53/8 10/54/9 36/55/9 35/56/8 

vn 0 0 1
vt 1.5 0.15748
vt 0.2 0.15748
f 10/12/10 11/13/10 37/57/10 36/58/10 

vt 1.48717 0
vn 0.130526 0 0.991445
vt 1.53938 0
vn 0.258819 0 0.965926
vt 1.53938 0.15748
vt 1.48717 0.15748
f 11/59/11 12/60/12 38/61/12 37/62/11 

vt 1.43625 0
vt 1.48846 0
vn 0.5 0 0.866025
vt 1.48846 0.15748
vt 1.43625 0.15748
f 12/63/12 13/64/13 39/65/13 38/66/12 

vt 1.28568 0
vt 1.33789 0
vn 0.707107 0 0.707107
vt 1.33789 0.15748
vt 1.28568 0.15748
f 13/67/13 14/68/14 40/69/14 39/70/13 

vt 1.04571 0
vt 1.09792 0
vn 0.866025 0 0.5
vt 1.09792 0.15748
vt 1.04571 0.15748
f 14/71/14 15/72/15 41/73/15 40/74/14 

vt 0.732696 0
vt 0.784906 0
vn 0.965926 0 0.258819
vt 0.784906 0.15748
vt 0.732696 0.15748
f 15/75/15 16/76/16 42/77/16 41/78/15 

vt 0.367973 0
vt 0.420183 0
vn 0.991445 0 0.130526
vt 0.420183 0.15748
vt 0.367973 0.15748
f 16/79/16 17/80/17 43/81/17 42/82/16 

vn 1 0 -0
vt 0.9 0
vt 0.9 0.15748
f 17/12/18 18/83/18 44/84/18 43/58/18 

vt 0.670406 0
vn 0.991445 0 -0.130526
vt 0.722616 0
vn 0.965926 0 -0.258819
vt 0.722616 0.15748
vt 0.670406 0.15748
f 18/85/19 19/86/20 45/87/20 44/88/19 

vt 0.231361 0
vt 0.283572 0
vn 0.866025 0 -0.5
vt 0.283572 0.15748
vt 0.231361 0.15748
f 19/89/20 20/90/21 46/91/21 45/92/20 

vt -0.225229 0
vt -0.173019 0
vn 0.707107 0 -0.707107
vt -0.173019 0.15748
vt -0.225229 0.15748
f 20/93/21 21/94/22 47/95/22 46/96/21 

vt -0.66825 0
vt -0.616039 0
vn 0.5 0 -0.866025
vt -0.616039 0.15748
vt -0.66825 0.15748
f 21/97/22 22/98/23 48/99/23 47/100/22 

vt -1.06751 0
vt -1.0153 0
vn 0.258819 0 -0.965926
vt -1.0153 0.15748
vt -1.06751 0.15748
f 22/101/23 23/102/24 49/103/24 48/104/23 

vt -1.3958 0
vt -1.34359 0
vn 0.130526 0 -0.991445
vt -1.34359 0.15748
vt -1.3958 0.15748
f 23/105/24 24/106/25 50/107/25 49/108/24 

vt -1.5 0
vn 1.09314e-14 0 -1
vt -1.5 0.15748
f 24/109/26 25/34/26 51/35/26 50/110/26 

vt -0.341868 0
vn -0.130526 0 -0.991445
vt -0.289657 0
vn -0.258819 0 -0.965926
vt -0.289657 0.15748
vt -0.341868 0.15748
f 25/111/27 26/112/28 52/113/28 51/114/27 

vt -0.555296 0
vt -0.503086 0
vn -0.5 0 -0.866025
vt -0.503086 0.15748
vt -0.555296 0.15748
f 26/115/28 27/116/29 53/117/29 52/118/28 

vt -0.732661 0
vt -0.680451 0
vn -0.707107 0 -0.707107
vt -0.680451 0.15748
vt -0.732661 0.15748
f 27/119/29 28/120/30 54/121/30 53/122/29 

vt -0.861876 0
vt -0.809665 0
vn -0.866025 0 -0.5
vt -0.809665 0.15748
vt -0.861876 0.15748
f 28/123/30 29/124/31 55/125/31 54/126/30 

vt -0.934134 0
vt -0.881923 0
vn -0.965926 0 -0.258819
vt -0.881923 0.15748
vt -0.934134 0.15748
f 29/127/31 30/128/32 56/129/32 55/130/31 

vt -0.944511 0
vt -0.8923 0
vn -0.991445 0 -0.130526
vt -0.8923 0.15748
vt -0.944511 0.15748
f 30/131/32 5/132/33 32/133/33 56/134/32 

