# Alias OBJ Model File
# Exported from SketchUp, (c) 2000-2012 Trimble Navigation Limited
# File units = inches

mtllib 10dof-Leg_0.2.mtl

g Mesh1 Group1 Model

usemtl FrontColor
v 323.091 -0.137827 -94.7997
vt -0.263923 0
vn -0.5 0 -0.866025
v 323.086 -0.137827 -94.7977
vt -0.258702 0
vn -0.258819 0 -0.965926
v 323.086 0.612173 -94.7977
vt -0.258702 0.75
v 323.091 0.612173 -94.7997
vt -0.263923 0.75
f 1/1/1 2/2/2 3/3/2 4/4/1 

v 323.132 -0.137827 -94.6238
vt -0.251764 0.00681483
vn 0 -1 -0
vt -0.205176 0.180681
vt -0.21 0.182679
f 5/5/3 2/6/3 1/7/3

v 323.081 -0.137827 -94.617
vt -0.2 0
f 6/8/3 2/6/3 5/5/3

v 323.081 -0.137827 -94.797
vt -0.2 0.18
f 6/8/3 7/9/3 2/6/3

v 323.076 -0.137827 -94.7977
vt -0.194824 0.180681
f 6/8/3 8/10/3 7/9/3

v 323.071 -0.137827 -94.7997
vt -0.19 0.182679
f 6/8/3 9/11/3 8/10/3

v 323.067 -0.137827 -94.8029
vt -0.185858 0.185858
f 6/8/3 10/12/3 9/11/3

v 323.063 -0.137827 -94.807
vt -0.182679 0.19
f 6/8/3 11/13/3 10/12/3

v 323.061 -0.137827 -94.8118
vt -0.180681 0.194824
f 6/8/3 12/14/3 11/13/3

v 323.061 -0.137827 -94.817
vt -0.18 0.2
f 6/8/3 13/15/3 12/14/3

v 323.029 -0.137827 -94.6238
vt -0.148236 0.00681483
f 13/15/3 6/8/3 14/16/3

vt 0.146078 0
vn -0.258819 0 0.965926
vt 0.198289 0
vn 0 0 1
v 323.081 0.612173 -94.617
vt 0.198289 0.75
v 323.029 0.612173 -94.6238
vt 0.146078 0.75
f 14/17/4 6/18/5 15/19/5 16/20/4 

vt 0.250499 0
vn 0.258819 0 0.965926
v 323.132 0.612173 -94.6238
vt 0.250499 0.75
f 6/18/5 5/21/6 17/22/6 15/19/5 

vt 0.235207 0
v 323.181 -0.137827 -94.6438
vt 0.287418 0
vn 0.5 0 0.866025
v 323.181 0.612173 -94.6438
vt 0.287418 0.75
vt 0.235207 0.75
f 5/23/6 18/24/7 19/25/7 17/26/6 

v 323.181 -0.137827 -94.9902
vt -0.3 0.373205
vt -0.3 0.0267949
f 5/5/3 20/27/3 18/28/3

v 323.132 -0.137827 -95.0102
vt -0.251764 0.393185
f 5/5/3 21/29/3 20/27/3

v 323.101 -0.137827 -94.817
vt -0.22 0.2
f 5/5/3 22/30/3 21/29/3

v 323.1 -0.137827 -94.8118
vt -0.219319 0.194824
f 5/5/3 23/31/3 22/30/3

v 323.098 -0.137827 -94.807
vt -0.217321 0.19
f 5/5/3 24/32/3 23/31/3

v 323.095 -0.137827 -94.8029
vt -0.214142 0.185858
f 5/5/3 25/33/3 24/32/3

f 5/5/3 1/7/3 25/33/3

vt -0.283033 0
vn -0.707107 0 -0.707107
vt -0.277812 0
vt -0.277812 0.75
v 323.095 0.612173 -94.8029
vt -0.283033 0.75
f 25/34/8 1/35/1 4/36/1 26/37/8 

vt 0.21 0.182679
vn 0 1 -0
vt 0.251764 0.00681483
vt 0.214142 0.185858
f 4/38/9 17/39/9 26/40/9

vt 0.205176 0.180681
f 3/41/9 17/39/9 4/38/9

v 323.081 0.612173 -94.797
vt 0.2 0.18
f 27/42/9 17/39/9 3/41/9

vt 0.2 0
f 27/42/9 15/43/9 17/39/9

v 323.076 0.612173 -94.7977
vt 0.194824 0.180681
f 28/44/9 15/43/9 27/42/9

v 323.071 0.612173 -94.7997
vt 0.19 0.182679
f 29/45/9 15/43/9 28/44/9

v 323.067 0.612173 -94.8029
vt 0.185858 0.185858
f 30/46/9 15/43/9 29/45/9

v 323.063 0.612173 -94.807
vt 0.182679 0.19
f 31/47/9 15/43/9 30/46/9

v 323.061 0.612173 -94.8118
vt 0.180681 0.194824
f 32/48/9 15/43/9 31/47/9

v 323.061 0.612173 -94.817
vt 0.18 0.2
f 33/49/9 15/43/9 32/48/9

v 323.029 0.612173 -95.0102
vt 0.148236 0.393185
f 34/50/9 15/43/9 33/49/9

vt 0.148236 0.00681483
f 34/50/9 16/51/9 15/43/9

v 322.981 0.612173 -94.9902
vt 0.1 0.373205
f 35/52/9 16/51/9 34/50/9

v 322.981 0.612173 -94.6438
vt 0.1 0.0267949
f 35/52/9 36/53/9 16/51/9

v 322.939 0.612173 -94.9584
vt 0.0585786 0.341421
f 37/54/9 36/53/9 35/52/9

v 322.939 0.612173 -94.6756
vt 0.0585786 0.0585786
f 37/54/9 38/55/9 36/53/9

v 322.908 0.612173 -94.917
vt 0.0267949 0.3
f 39/56/9 38/55/9 37/54/9

v 322.908 0.612173 -94.717
vt 0.0267949 0.1
f 39/56/9 40/57/9 38/55/9

v 322.888 0.612173 -94.8688
vt 0.00681483 0.251764
f 41/58/9 40/57/9 39/56/9

v 322.888 0.612173 -94.7652
vt 0.00681483 0.148236
f 41/58/9 42/59/9 40/57/9

v 322.881 0.612173 -94.817
vt 0 0.2
f 42/59/9 41/58/9 43/60/9

v 322.888 -0.137827 -94.8688
vt -0.250499 0
vn -0.965926 0 -0.258819
v 322.881 -0.137827 -94.817
vt -0.198289 0
vn -1 0 -0
vt -0.198289 0.75
vt -0.250499 0.75
f 44/61/10 45/62/11 43/63/11 41/64/10 

vt -0.00681483 0.251764
v 322.888 -0.137827 -94.7652
vt -0.00681483 0.148236
f 44/65/3 46/66/3 45/60/3

v 322.908 -0.137827 -94.917
vt -0.0267949 0.3
f 46/66/3 44/65/3 47/67/3

vt -0.287418 0
vn -0.866025 0 -0.5
vt -0.235207 0
vt -0.235207 0.75
vt -0.287418 0.75
f 47/68/12 44/69/10 41/70/10 39/71/12 

v 322.939 -0.137827 -94.9584
vt -0.306528 0
vt -0.254318 0
vt -0.254318 0.75
vt -0.306528 0.75
f 48/72/8 47/73/12 39/74/12 37/75/8 

v 322.908 -0.137827 -94.717
vt -0.0267949 0.1
vt -0.0585786 0.341421
f 49/76/3 47/67/3 48/77/3

f 46/66/3 47/67/3 49/76/3

vt -0.134344 0
vn -0.965926 0 0.258819
vt -0.082134 0
vn -0.866025 0 0.5
vt -0.082134 0.75
vt -0.134344 0.75
f 46/78/13 49/79/14 40/80/14 42/81/13 

vt -0.0630236 0
v 322.939 -0.137827 -94.6756
vt -0.0108131 0
vn -0.707107 0 0.707107
vt -0.0108131 0.75
vt -0.0630236 0.75
f 49/82/14 50/83/15 38/84/15 40/85/14 

vt -0.0585786 0.0585786
f 49/76/3 48/77/3 50/86/3

v 322.981 -0.137827 -94.9902
vt -0.1 0.373205
f 50/86/3 48/77/3 51/87/3

f 51/72/1 48/73/8 37/74/8 35/75/1 

v 323.029 -0.137827 -95.0102
f 52/68/2 51/69/1 35/70/1 34/71/2 

vt -0.148236 0.393185
f 14/16/3 51/87/3 52/88/3

v 322.981 -0.137827 -94.6438
vt -0.1 0.0267949
f 53/89/3 51/87/3 14/16/3

f 50/86/3 51/87/3 53/89/3

vt 0.0108131 0
vt 0.0630236 0
vn -0.5 0 0.866025
vt 0.0630236 0.75
vt 0.0108131 0.75
f 50/90/15 53/91/16 36/92/16 38/93/15 

vt 0.082134 0
vt 0.134344 0
vt 0.134344 0.75
vt 0.082134 0.75
f 53/94/16 14/95/4 16/96/4 36/97/16 

v 323.081 -0.137827 -95.017
vt -0.2 0.4
f 14/16/3 52/88/3 54/98/3

vn 0 0 -1
v 323.081 0.612173 -95.017
f 54/61/17 52/62/2 34/63/2 55/64/17 

vt 0.2 0.4
f 33/49/9 55/99/9 34/50/9

v 323.061 0.612173 -94.8222
vt 0.180681 0.205176
f 55/99/9 33/49/9 56/100/9

vt 0.221784 0
vn 1 0 -0
v 323.061 -0.137827 -94.8222
vt 0.227005 0
vn 0.965926 0 0.258819
vt 0.227005 0.75
vt 0.221784 0.75
f 13/101/18 57/102/19 56/103/19 33/104/18 

vt -0.180681 0.205176
f 13/15/3 54/98/3 57/105/3

f 14/16/3 54/98/3 13/15/3

v 323.063 -0.137827 -94.827
vt -0.182679 0.21
f 57/105/3 54/98/3 58/106/3

v 323.067 -0.137827 -94.8312
vt -0.185858 0.214142
f 58/106/3 54/98/3 59/107/3

v 323.071 -0.137827 -94.8343
vt -0.19 0.217321
f 59/107/3 54/98/3 60/108/3

v 323.076 -0.137827 -94.8363
vt -0.194824 0.219319
f 60/108/3 54/98/3 61/109/3

v 323.081 -0.137827 -94.837
vt -0.2 0.22
f 61/109/3 54/98/3 62/110/3

f 62/110/3 54/98/3 21/29/3

vn 0.258819 0 -0.965926
vt -0.146078 0
vt -0.146078 0.75
v 323.132 0.612173 -95.0102
f 21/62/20 54/111/17 55/112/17 63/63/20 

v 323.086 0.612173 -94.8363
vt 0.205176 0.219319
vt 0.251764 0.393185
f 55/99/9 64/113/9 63/114/9

v 323.081 0.612173 -94.837
vt 0.2 0.22
f 55/99/9 65/115/9 64/113/9

v 323.076 0.612173 -94.8363
vt 0.194824 0.219319
f 55/99/9 66/116/9 65/115/9

v 323.071 0.612173 -94.8343
vt 0.19 0.217321
f 55/99/9 67/117/9 66/116/9

v 323.067 0.612173 -94.8312
vt 0.185858 0.214142
f 55/99/9 68/118/9 67/117/9

v 323.063 0.612173 -94.827
vt 0.182679 0.21
f 55/99/9 69/119/9 68/118/9

f 55/99/9 56/100/9 69/119/9

vt 0.258702 0
vt 0.263923 0
vn 0.866025 0 0.5
vt 0.263923 0.75
vt 0.258702 0.75
f 57/120/19 58/121/21 69/122/21 56/123/19 

vt 0.277812 0
vt 0.283033 0
vn 0.707107 0 0.707107
vt 0.283033 0.75
vt 0.277812 0.75
f 58/124/21 59/125/22 68/126/22 69/127/21 

f 59/124/22 60/125/7 67/126/7 68/127/22 

f 60/120/7 61/121/6 66/122/6 67/123/7 

f 61/101/6 62/102/5 65/103/5 66/104/6 

vt 0.169573 0
v 323.086 -0.137827 -94.8363
vt 0.174794 0
vt 0.174794 0.75
vt 0.169573 0.75
f 62/128/5 70/129/4 64/130/4 65/131/5 

vt -0.205176 0.219319
f 62/110/3 21/29/3 70/132/3

v 323.091 -0.137827 -94.8343
vt -0.21 0.217321
f 70/132/3 21/29/3 71/133/3

v 323.095 -0.137827 -94.8312
vt -0.214142 0.214142
f 71/133/3 21/29/3 72/134/3

v 323.098 -0.137827 -94.827
vt -0.217321 0.21
f 72/134/3 21/29/3 73/135/3

v 323.1 -0.137827 -94.8222
vt -0.219319 0.205176
f 73/135/3 21/29/3 74/136/3

f 74/136/3 21/29/3 22/30/3

vt -0.174794 0
vt -0.169573 0
v 323.101 0.612173 -94.817
vt -0.169573 0.75
v 323.1 0.612173 -94.8222
vt -0.174794 0.75
f 74/137/13 22/138/11 75/139/11 76/140/13 

vt -0.227005 0
vt -0.221784 0
v 323.1 0.612173 -94.8118
vt -0.221784 0.75
vt -0.227005 0.75
f 22/141/11 23/142/10 77/143/10 75/144/11 

v 323.098 0.612173 -94.807
f 23/1/10 24/2/12 78/3/12 77/4/10 

f 24/34/12 25/35/8 26/36/8 78/37/12 

vt 0.217321 0.19
f 26/40/9 17/39/9 78/145/9

vt 0.219319 0.194824
f 78/145/9 17/39/9 77/146/9

vt 0.22 0.2
f 77/146/9 17/39/9 75/147/9

f 63/114/9 75/147/9 17/39/9

vt 0.219319 0.205176
f 63/114/9 76/148/9 75/147/9

v 323.098 0.612173 -94.827
vt 0.217321 0.21
f 63/114/9 79/149/9 76/148/9

v 323.095 0.612173 -94.8312
vt 0.214142 0.214142
f 63/114/9 80/150/9 79/149/9

v 323.091 0.612173 -94.8343
vt 0.21 0.217321
f 63/114/9 81/151/9 80/150/9

f 63/114/9 64/113/9 81/151/9

vt 0.105629 0
vt 0.11085 0
vt 0.11085 0.75
vt 0.105629 0.75
f 70/152/4 71/153/16 81/154/16 64/155/4 

vt 0.0343079 0
vt 0.0395289 0
vt 0.0395289 0.75
vt 0.0343079 0.75
f 71/156/16 72/157/15 80/158/15 81/159/16 

vt -0.0395289 0
vt -0.0343079 0
vt -0.0343079 0.75
vt -0.0395289 0.75
f 72/160/15 73/161/14 79/162/14 80/163/15 

vt -0.11085 0
vt -0.105629 0
vt -0.105629 0.75
vt -0.11085 0.75
f 73/164/14 74/165/13 76/166/13 79/167/14 

vt 0.3 0.0267949
f 63/114/9 17/39/9 19/168/9

v 323.181 0.612173 -94.9902
vt 0.3 0.373205
f 63/114/9 19/168/9 82/169/9

v 323.222 0.612173 -94.6756
vt 0.341421 0.0585786
f 82/169/9 19/168/9 83/170/9

vt 0.254318 0
v 323.222 -0.137827 -94.6756
vt 0.306528 0
vt 0.306528 0.75
vt 0.254318 0.75
f 18/171/7 84/172/22 83/173/22 19/174/7 

vt -0.341421 0.0585786
f 18/28/3 20/27/3 84/175/3

v 323.222 -0.137827 -94.9584
vt -0.341421 0.341421
f 84/175/3 20/27/3 85/176/3

vn 0.707107 0 -0.707107
vn 0.5 0 -0.866025
v 323.222 0.612173 -94.9584
f 85/82/23 20/83/24 82/84/24 86/85/23 

f 20/78/24 21/79/20 63/80/20 82/81/24 

vt 0.341421 0.341421
f 82/169/9 83/170/9 86/177/9

v 323.254 0.612173 -94.717
vt 0.373205 0.1
f 86/177/9 83/170/9 87/178/9

v 323.254 -0.137827 -94.717
f 84/171/22 88/172/21 87/173/21 83/174/22 

v 323.254 -0.137827 -94.917
vt -0.373205 0.3
vt -0.373205 0.1
f 84/175/3 89/179/3 88/180/3

f 84/175/3 85/176/3 89/179/3

vn 0.866025 0 -0.5
v 323.254 0.612173 -94.917
f 89/90/25 85/91/23 86/92/23 90/93/25 

vt 0.373205 0.3
f 86/177/9 87/178/9 90/181/9

v 323.274 0.612173 -94.7652
vt 0.393185 0.148236
f 90/181/9 87/178/9 91/182/9

v 323.274 -0.137827 -94.7652
f 88/23/21 92/24/19 91/25/19 87/26/21 

v 323.274 -0.137827 -94.8688
vt -0.393185 0.251764
vt -0.393185 0.148236
f 88/180/3 93/183/3 92/184/3

f 88/180/3 89/179/3 93/183/3

vn 0.965926 0 -0.258819
v 323.274 0.612173 -94.8688
f 93/94/26 89/95/25 90/96/25 94/97/26 

vt 0.393185 0.251764
f 90/181/9 91/182/9 94/185/9

v 323.281 0.612173 -94.817
vt 0.4 0.2
f 94/185/9 91/182/9 95/186/9

v 323.281 -0.137827 -94.817
f 92/18/19 96/21/18 95/22/18 91/19/19 

vt -0.4 0.2
f 92/184/3 93/183/3 96/187/3

f 96/17/18 93/18/26 94/19/26 95/20/18 

f 12/128/26 13/129/18 33/130/18 32/131/26 

f 11/152/25 12/153/26 32/154/26 31/155/25 

f 10/156/23 11/157/25 31/158/25 30/159/23 

f 9/160/24 10/161/23 30/162/23 29/163/24 

f 8/164/20 9/165/24 29/166/24 28/167/20 

f 7/137/17 8/138/20 28/139/20 27/140/17 

f 2/141/2 7/142/17 27/143/17 3/144/2 

f 45/62/11 46/111/13 42/112/13 43/63/11 

